<svg xmlns="http://www.w3.org/2000/svg" width="800" height="500" viewBox="0 0 800 500">
  <rect width="800" height="500" fill="#0E131B"/>
  <rect x="0" y="0" width="800" height="36" fill="#111827"/>
  <circle cx="20" cy="18" r="5" fill="#EF4444"/><circle cx="38" cy="18" r="5" fill="#F59E0B"/><circle cx="56" cy="18" r="5" fill="#10B981"/>
  <text x="80" y="22" fill="#64748b" font-family="ui-monospace,monospace" font-size="11">Policy console · platform-team</text>
  <rect x="0" y="36" width="220" height="464" fill="#0a0f16"/>
  <text x="20" y="68" fill="#7C5CFF" font-family="ui-monospace,monospace" font-size="10">PACKS</text>
  <rect x="20" y="80" width="180" height="32" rx="6" fill="#111827" stroke="rgba(124,92,255,0.4)"/>
  <text x="32" y="100" fill="#e2e8f0" font-family="ui-monospace,monospace" font-size="10">prod-guardrails.yaml</text>
  <rect x="20" y="120" width="180" height="28" rx="6" fill="#111827"/>
  <text x="32" y="138" fill="#94a3b8" font-family="ui-monospace,monospace" font-size="10">soc2-baseline.yaml</text>
  <rect x="240" y="56" width="540" height="420" rx="10" fill="#111827" stroke="rgba(255,255,255,0.08)"/>
  <text x="260" y="88" fill="#5DA8FF" font-family="ui-monospace,monospace" font-size="11">rules:</text>
  <text x="280" y="112" fill="#94a3b8" font-family="ui-monospace,monospace" font-size="10">- id: deny-prod-db</text>
  <text x="300" y="132" fill="#EF4444" font-family="ui-monospace,monospace" font-size="10">  action: deny</text>
  <text x="300" y="152" fill="#e2e8f0" font-family="ui-monospace,monospace" font-size="10">  match: DROP DATABASE</text>
  <text x="280" y="180" fill="#94a3b8" font-family="ui-monospace,monospace" font-size="10">- id: ask-external-mcp</text>
  <text x="300" y="200" fill="#F59E0B" font-family="ui-monospace,monospace" font-size="10">  action: ask</text>
  <rect x="260" y="360" width="200" height="36" rx="8" fill="rgba(93,168,255,0.15)" stroke="rgba(93,168,255,0.35)"/>
  <text x="276" y="382" fill="#93c5fd" font-family="ui-monospace,monospace" font-size="10">Enforcement: strict · v14</text>
</svg>
